<?xml version="1.0" encoding="UTF-8" standalone="no"?>
<svg
   version="1.0"
   width="48"
   height="48"
   viewBox="0 0 480 480"
   preserveAspectRatio="xMidYMid"
   id="svg70"
   sodipodi:docname="logo.svg"
   inkscape:version="1.2 (dc2aedaf03, 2022-05-15)"
   inkscape:export-filename="logo128.png"
   inkscape:export-xdpi="256"
   inkscape:export-ydpi="256"
   xmlns:inkscape="http://www.inkscape.org/namespaces/inkscape"
   xmlns:sodipodi="http://sodipodi.sourceforge.net/DTD/sodipodi-0.dtd"
   xmlns="http://www.w3.org/2000/svg"
   xmlns:svg="http://www.w3.org/2000/svg">
  <defs
     id="defs74" />
  <sodipodi:namedview
     id="namedview72"
     pagecolor="#ffffff"
     bordercolor="#666666"
     borderopacity="1.0"
     inkscape:showpageshadow="2"
     inkscape:pageopacity="0.0"
     inkscape:pagecheckerboard="0"
     inkscape:deskcolor="#d1d1d1"
     showgrid="false"
     inkscape:zoom="4.7303371"
     inkscape:cx="1.1627078"
     inkscape:cy="35.938242"
     inkscape:window-width="1920"
     inkscape:window-height="1004"
     inkscape:window-x="0"
     inkscape:window-y="48"
     inkscape:window-maximized="1"
     inkscape:current-layer="svg70" />
  <g
     id="layer101"
     fill="#000000"
     stroke="none"
     transform="matrix(0.48176821,0,0,0.54340049,-1.768212,-2.9743529)" />
  <g
     id="layer102"
     fill="#ff4500"
     stroke="none"
     transform="matrix(0.48176821,0,0,0.54340049,-1.768212,-2.9743529)">
    <path
       d="M 353,876 C 197,838 75,724 66,606 64,577 55,556 37,538 -11,490 -7,416 48,367 c 28,-25 83,-32 117,-14 26,13 31,13 60,-4 46,-27 136,-56 198,-64 l 54,-7 26,-126 c 15,-69 31,-130 36,-135 6,-6 45,-3 101,8 87,17 91,17 111,-1 49,-44 139,-4 139,61 0,50 -33,85 -81,85 -38,0 -61,-15 -84,-54 C 715,99 591,65 580,77 c -3,2 -14,49 -25,103 l -21,98 46,7 c 67,10 137,32 185,58 37,21 45,23 66,11 72,-40 169,19 169,103 0,30 -33,93 -50,93 -5,0 -10,17 -10,38 0,23 -12,64 -31,101 -47,93 -147,162 -277,190 -68,14 -213,13 -279,-3 z"
       id="path67" />
  </g>
  <rect
     style="fill:#000000;stroke-width:193.382;stroke-linecap:round;stroke-linejoin:round"
     id="rect501"
     width="289.80695"
     height="59.16106"
     x="94.113266"
     y="252.1665" />
</svg>
